<svg width="24" height="24" viewBox="0 0 24 24" fill="none" xmlns="http://www.w3.org/2000/svg">
<path d="M22.0001 12.62V14.68C21.9985 14.9516 21.8893 15.2115 21.6964 15.4027C21.5035 15.5939 21.2427 15.7008 20.9711 15.7H19.0401C18.5124 15.7109 17.9995 15.5257 17.6005 15.1803C17.2015 14.8349 16.9448 14.3538 16.8801 13.83C16.8517 13.5307 16.8909 13.2289 16.9947 12.9468C17.0986 12.6647 17.2644 12.4095 17.4801 12.2C17.6674 12.0083 17.8915 11.8563 18.1389 11.7533C18.3863 11.6502 18.652 11.598 18.9201 11.6H20.9711C21.2427 11.5992 21.5035 11.7061 21.6964 11.8973C21.8893 12.0885 21.9985 12.3484 22.0001 12.62Z" fill="white"/>
<path d="M15.38 13.96C15.3355 13.44 15.4066 12.9167 15.5881 12.4274C15.7697 11.9382 16.0572 11.4951 16.43 11.13C16.7558 10.8015 17.1438 10.5413 17.5714 10.3644C17.9989 10.1876 18.4574 10.0977 18.92 10.1H19.49C19.5558 10.1023 19.6214 10.0904 19.6822 10.065C19.743 10.0396 19.7975 10.0014 19.8422 9.95298C19.8868 9.90454 19.9205 9.84703 19.9408 9.78437C19.9611 9.72172 19.9677 9.65541 19.96 9.58999C19.8235 8.63643 19.3481 7.76393 18.6209 7.13221C17.8937 6.50049 16.9633 6.15181 16 6.14999H6C4.93913 6.14999 3.92172 6.57142 3.17157 7.32157C2.42143 8.07171 2 9.08913 2 10.15L2 17.15C2 18.2109 2.42143 19.2283 3.17157 19.9784C3.92172 20.7286 4.93913 21.15 6 21.15H16C16.9637 21.1498 17.895 20.8018 18.6226 20.1697C19.3502 19.5377 19.8251 18.6642 19.96 17.71C19.9677 17.6446 19.9611 17.5783 19.9408 17.5156C19.9205 17.453 19.8868 17.3954 19.8422 17.347C19.7975 17.2986 19.743 17.2604 19.6822 17.235C19.6214 17.2096 19.5558 17.1977 19.49 17.2H19.04C18.1365 17.2111 17.2611 16.8855 16.5846 16.2865C15.908 15.6876 15.4786 14.8582 15.38 13.96ZM13 11.9H7C6.80109 11.9 6.61032 11.821 6.46967 11.6803C6.32902 11.5397 6.25 11.3489 6.25 11.15C6.25 10.9511 6.32902 10.7603 6.46967 10.6197C6.61032 10.479 6.80109 10.4 7 10.4H13C13.1989 10.4 13.3897 10.479 13.5303 10.6197C13.671 10.7603 13.75 10.9511 13.75 11.15C13.75 11.3489 13.671 11.5397 13.5303 11.6803C13.3897 11.821 13.1989 11.9 13 11.9Z" fill="white"/>
<path d="M14.2102 3.98001C14.2672 4.04052 14.3039 4.11729 14.3153 4.19966C14.3267 4.28202 14.3121 4.36589 14.2736 4.43958C14.2351 4.51328 14.1746 4.57315 14.1005 4.61086C14.0264 4.64858 13.9424 4.66226 13.8602 4.65001H6.03015C4.98019 4.64823 3.95216 4.95039 3.07015 5.52001C2.68015 5.77001 2.15015 5.50001 2.34015 5.07001C2.62472 4.40999 3.09659 3.8479 3.69735 3.45332C4.29811 3.05873 5.0014 2.84898 5.72015 2.85001H11.3402C11.8702 2.83333 12.3981 2.92494 12.8916 3.11923C13.3851 3.31352 13.8337 3.60642 14.2102 3.98001Z" fill="white"/>
</svg>
